{"accessors":[{"name":"Mesh_1_0_positions","componentType":5126,"count":2271,"min":[-6.567759037017822,0,-4.779658794403076],"max":[4.449056148529053,12.165539741516113,4.246960163116455],"type":"VEC3","bufferView":0,"byteOffset":0},{"name":"Mesh_1_0_normals","componentType":5126,"count":2271,"min":[-0.9999439120292664,-0.9919738173484802,-0.9999865293502808],"max":[0.9999958872795105,0.9997732639312744,0.9999064207077026],"type":"VEC3","bufferView":1,"byteOffset":0},{"name":"Mesh_1_0_indices","componentType":5123,"count":4452,"min":[0],"max":[2270],"type":"SCALAR","bufferView":2,"byteOffset":0}],"asset":{"generator":"obj2gltf","version":"2.0"},"buffers":[{"name":"input","byteLength":63408,"uri":"data:application/octet-stream;base64,"}],"bufferViews":[{"name":"bufferView_0","buffer":0,"byteLength":27252,"byteOffset":0,"byteStride":12,"target":34962},{"name":"bufferView_1","buffer":0,"byteLength":27252,"byteOffset":27252,"byteStride":12,"target":34962},{"name":"bufferView_3","buffer":0,"byteLength":8904,"byteOffset":54504,"target":34963}],"materials":[{"name":"Mesh","pbrMetallicRoughness":{"baseColorFactor":[0.5,0.5,0.5,1],"metallicFactor":0,"roughnessFactor":1},"emissiveFactor":[0,0,0],"alphaMode":"OPAQUE","doubleSided":false}],"meshes":[{"name":"Mesh_1","primitives":[{"attributes":{"POSITION":0,"NORMAL":1},"indices":2,"material":0,"mode":4}]}],"nodes":[{"name":"Mesh","mesh":0}],"scene":0,"scenes":[{"nodes":[0]}]}
